<mxfile host="app.diagrams.net" modified="2024-01-10T08:17:13.636Z" agent="Mozilla/5.0 (Windows NT 10.0; Win64; x64) AppleWebKit/537.36 (KHTML, like Gecko) Chrome/120.0.0.0 Safari/537.36" version="22.1.18" etag="ztJP4x0pw4rInjEgxqfI" type="github">
  <diagram name="Pagina-1" id="sKR6wbjK3Ms793DX0Xr_">
    <mxGraphModel>
      <root>
        <mxCell id="0" />
        <mxCell id="1" parent="0" />
      </root>
    </mxGraphModel>
  </diagram>
</mxfile>
